#!OML:ASF G:\JayActor3\Patient Classification 1\Patient 1\Session 6\male.ASF
:FULLY-SPECIFIED
:DEGREES
1786
root 0.794303 16.4529 -3.32638 7.18808 -83.2922 -12.1367
lowerback 2.59948 -1.93699 4.4821
upperback -5.56263 -2.29382 2.15569
thorax -7.36814 -1.35988 -0.0336246
lowerneck 7.06211 7.58034 7.59109
upperneck -5.44818 10.8339 -0.000596597
head -2.54514 5.20398 -1.72363
rclavicle 2.78299e-015 -1.59028e-014
rhumerus -47.7349 11.6211 -78.9989
rradius 33.8606
rwrist 4.53924
rhand -10.5818 -2.8276
rfingers 7.12502
rthumb 15.4233 -32.2322
lclavicle 2.78299e-015 -1.59028e-014
lhumerus -30.0356 -32.9992 74.6881
lradius 47.2218
lwrist 20.6263
lhand 19.8519 10.5676
lfingers 7.12502
lthumb 44.3971 34.3008
rfemur -2.27172 2.726 20.073
rtibia 31.9498
rfoot -27.1666 -17.9215
rtoes 1.56188
lfemur 6.08514 4.02687 -12.7642
ltibia 14.4422
lfoot -14.8917 11.1845
ltoes 2.89847
1787
root 0.792463 16.453 -3.32524 7.34851 -83.3027 -12.2896
lowerback 2.60026 -1.92734 4.47945
upperback -5.56841 -2.28133 2.14803
thorax -7.37451 -1.354 -0.0411057
lowerneck 7.07332 7.57425 7.59428
upperneck -5.44496 10.827 -0.00189357
head -2.54618 5.20063 -1.72492
rclavicle -2.06736e-014 2.14687e-014
rhumerus -47.7442 11.5665 -79.002
rradius 33.8356
rwrist 4.5564
rhand -10.5786 -2.81961
rfingers 7.12502
rthumb 15.4264 -32.224
lclavicle -2.06736e-014 2.14687e-014
lhumerus -30.3997 -32.6654 74.9624
lradius 47.1002
lwrist 20.6
lhand 19.8574 10.5982
lfingers 7.12502
lthumb 44.4022 34.3294
rfemur -2.27117 2.73892 20.0885
rtibia 31.9406
rfoot -27.1622 -17.9277
rtoes 1.54336
lfemur 6.08261 4.01452 -12.7541
ltibia 14.4545
lfoot -14.9252 11.1925
ltoes 2.96285
1788
root 0.790591 16.4531 -3.32416 7.50965 -83.3153 -12.443
lowerback 2.60222 -1.91695 4.47637
upperback -5.57656 -2.26779 2.13976
thorax -7.38408 -1.3477 -0.0489579
lowerneck 7.08765 7.56737 7.59363
upperneck -5.44106 10.8191 -0.000936401
head -2.54794 5.1968 -1.72499
rclavicle 1.63003e-014 -2.94201e-014
rhumerus -47.7583 11.5166 -79.0095
rradius 33.8129
rwrist 4.57045
rhand -10.5658 -2.81377
rfingers 7.12502
rthumb 15.4387 -32.2172
lclavicle 1.63003e-014 -2.94201e-014
lhumerus -30.7657 -32.3478 75.2383
lradius 46.9775
lwrist 20.5478
lhand 19.8401 10.6012
lfingers 7.12502
lthumb 44.3861 34.3386
rfemur -2.27032 2.75581 20.1043
rtibia 31.9297
rfoot -27.1577 -17.9336
rtoes 1.53149
lfemur 6.0759 4.00683 -12.7434
ltibia 14.4729
lfoot -14.9565 11.2001
ltoes 3.01206
1789
root 0.78867 16.4532 -3.32294 7.72489 -83.3274 -12.6501
lowerback 2.59945 -1.90699 4.48112
upperback -5.58328 -2.25466 2.13293
thorax -7.38969 -1.34195 -0.0598373
lowerneck 7.09902 7.5613 7.58824
upperneck -5.4363 10.8117 0.00223725
head -2.54921 5.19328 -1.72339
rclavicle -2.22639e-014 -1.11319e-014
rhumerus -47.7685 11.4688 -79.018
rradius 33.7907
rwrist 4.58563
rhand -10.5475 -2.80611
rfingers 7.12502
rthumb 15.4563 -32.2082
lclavicle -2.22639e-014 -1.11319e-014
lhumerus -31.1239 -32.0317 75.5091
lradius 46.8504
lwrist 20.464
lhand 19.832 10.5978
lfingers 7.12502
lthumb 44.3786 34.3381
rfemur -2.26917 2.76723 20.1246
rtibia 31.9167
rfoot -27.1511 -17.9325
rtoes 1.52729
lfemur 6.0651 4.00509 -12.725
ltibia 14.4979
lfoot -14.9866 11.2037
ltoes 3.05112
1790
root 0.786707 16.4531 -3.32157 7.95711 -83.3393 -12.8721
lowerback 2.59103 -1.89761 4.48949
upperback -5.58871 -2.24247 2.12636
thorax -7.39083 -1.33681 -0.0726493
lowerneck 7.10477 7.55606 7.58213
upperneck -5.42799 10.8047 0.00457027
head -2.5482 5.19016 -1.72149
rclavicle 2.32578e-014 -1.82882e-014
rhumerus -47.7734 11.4284 -79.0305
rradius 33.7687
rwrist 4.59611
rhand -10.5246 -2.80443
rfingers 7.12502
rthumb 15.4785 -32.2048
lclavicle 2.32578e-014 -1.82882e-014
lhumerus -31.4736 -31.7054 75.7719
lradius 46.7196
lwrist 20.3519
lhand 19.8079 10.5736
lfingers 7.12502
lthumb 44.356 34.3224
rfemur -2.27016 2.77061 20.1436
rtibia 31.9036
rfoot -27.1415 -17.9243
rtoes 1.52712
lfemur 6.04962 4.00787 -12.7049
ltibia 14.5264
lfoot -15.0131 11.2083
ltoes 3.06718
1791
root 0.784774 16.4531 -3.31997 8.189 -83.3504 -13.0919
lowerback 2.57697 -1.88859 4.50203
upperback -5.59234 -2.23103 2.1175
thorax -7.38706 -1.33225 -0.0903997
lowerneck 7.10661 7.55101 7.58272
upperneck -5.41743 10.7978 0.00187523
head -2.54509 5.18728 -1.72197
rclavicle 8.15017e-015 -4.53229e-014
rhumerus -47.7714 11.3881 -79.0466
rradius 33.7446
rwrist 4.60567
rhand -10.5053 -2.80641
rfingers 7.12502
rthumb 15.497 -32.2053
lclavicle 8.15017e-015 -4.53229e-014
lhumerus -31.8094 -31.3639 76.0217
lradius 46.5838
lwrist 20.2259
lhand 19.7801 10.5508
lfingers 7.12502
lthumb 44.3302 34.3094
rfemur -2.27248 2.76768 20.1598
rtibia 31.8899
rfoot -27.129 -17.912
rtoes 1.52578
lfemur 6.03087 4.01305 -12.6852
ltibia 14.5589
lfoot -15.0426 11.208
ltoes 3.09344
1792
root 0.782741 16.453 -3.3184 8.42081 -83.3627 -13.309
lowerback 2.55431 -1.87953 4.51337
upperback -5.5923 -2.22023 2.10836
thorax -7.37429 -1.32779 -0.108185
lowerneck 7.10177 7.54725 7.58765
upperneck -5.40459 10.792 -0.00617838
head -2.5394 5.1852 -1.72441
rclavicle 5.36719e-015 6.36111e-015
rhumerus -47.7576 11.3497 -79.0642
rradius 33.717
rwrist 4.61524
rhand -10.4952 -2.81175
rfingers 7.12502
rthumb 15.5067 -32.2099
lclavicle 5.36719e-015 6.36111e-015
lhumerus -32.1289 -31.0048 76.2576
lradius 46.445
lwrist 20.1043
lhand 19.74 10.5286
lfingers 7.12502
lthumb 44.2928 34.3014
rfemur -2.27807 2.76435 20.1753
rtibia 31.8777
rfoot -27.1147 -17.9034
rtoes 1.50719
lfemur 6.00971 4.02145 -12.6664
ltibia 14.5899
lfoot -15.0655 11.2137
ltoes 3.07992
1793
root 0.780599 16.4529 -3.31691 8.6702 -83.3759 -13.5434
lowerback 2.52968 -1.86967 4.52777
upperback -5.59247 -2.20841 2.09744
thorax -7.36077 -1.32305 -0.129703
lowerneck 7.09688 7.54385 7.59706
upperneck -5.39004 10.787 -0.0161841
head -2.53276 5.18353 -1.72814
rclavicle 1.23246e-014 -2.8625e-014
rhumerus -47.742 11.305 -79.0829
rradius 33.6885
rwrist 4.62691
rhand -10.4888 -2.82242
rfingers 7.12502
rthumb 15.5129 -32.2201
lclavicle 1.23246e-014 -2.8625e-014
lhumerus -32.44 -30.6406 76.4836
lradius 46.3057
lwrist 20.0053
lhand 19.7047 10.5314
lfingers 7.12502
lthumb 44.2599 34.3167
rfemur -2.28436 2.76746 20.1946
rtibia 31.8665
rfoot -27.1027 -17.8996
rtoes 1.48771
lfemur 5.99025 4.02835 -12.6457
ltibia 14.6181
lfoot -15.0904 11.2196
ltoes 3.07713
1794
root 0.778429 16.4529 -3.31548 8.85527 -83.3904 -13.713
lowerback 2.50608 -1.85953 4.53543
upperback -5.59382 -2.19668 2.08332
thorax -7.34891 -1.31808 -0.150733
lowerneck 7.08917 7.54189 7.60485
upperneck -5.37134 10.7835 -0.0243707
head -2.52432 5.18274 -1.73075
rclavicle -2.24627e-014 1.59028e-014
rhumerus -47.727 11.2582 -79.1023
rradius 33.6615
rwrist 4.63394
rhand -10.4898 -2.82993
rfingers 7.12502
rthumb 15.5119 -32.2277
lclavicle -2.24627e-014 1.59028e-014
lhumerus -32.7422 -30.2748 76.7028
lradius 46.1622
lwrist 19.9327
lhand 19.6748 10.5545
lfingers 7.12502
lthumb 44.232 34.3503
rfemur -2.29158 2.77438 20.2067
rtibia 31.858
rfoot -27.0956 -17.8973
rtoes 1.47036
lfemur 5.97386 4.03412 -12.634
ltibia 14.6395
lfoot -15.1114 11.2309
ltoes 3.06068
1795
root 0.776306 16.4529 -3.31395 9.02331 -83.4048 -13.8672
lowerback 2.48816 -1.84978 4.54405
upperback -5.59884 -2.18506 2.06757
thorax -7.34442 -1.31343 -0.173612
lowerneck 7.0836 7.54168 7.61062
upperneck -5.34738 10.7822 -0.030745
head -2.51461 5.18328 -1.73243
rclavicle 3.06128e-014 -4.05521e-014
rhumerus -47.7185 11.2067 -79.1203
rradius 33.6391
rwrist 4.63814
rhand -10.4973 -2.83559
rfingers 7.12502
rthumb 15.5047 -32.2339
lclavicle 3.06128e-014 -4.05521e-014
lhumerus -33.0464 -29.9221 76.9208
lradius 46.0192
lwrist 19.8892
lhand 19.6578 10.5918
lfingers 7.12502
lthumb 44.2162 34.3936
rfemur -2.29761 2.77891 20.2161
rtibia 31.8513
rfoot -27.09 -17.8909
rtoes 1.45964
lfemur 5.9641 4.03816 -12.6249
ltibia 14.6537
lfoot -15.1315 11.242
ltoes 3.05657
